# xmcd
#
# Track frame offsets:
#       150
#       10500
#       19987
#       33217
#       46792
#       56767
#       66442
#       74692
#       84640
#       98917
#       114097
#       125200
#
# Disc length: 1806 seconds
#
# Revision: 5
# Processed by: cddbd v1.5.2PL0 Copyright (c) Steve Scherf et al.
# Submitted via: FreeDbEdit v0.1
# Normalized: r3:TDELIM( - )
#
DISCID=a0070c0c
DTITLE=Various Artist - A Country Christmas [CD4]
DYEAR=1972
DGENRE=Christmas
TTITLE0=Eddy Arnold - Jolly Old St. Nicholas
TTITLE1=Charley Pride - Christmas in My Home Town
TTITLE2=Jim Reeves - Silver Bells
TTITLE3=Dottie West - You Are My Christmas Carol
TTITLE4=Porter Wagoner - Frosty the Snowman
TTITLE5=Hank Locklin - Rudolph the Red-Nosed Reindeer
TTITLE6=Jim Reeves - Jingle Bells
TTITLE7=The Browns - Blue Christmas
TTITLE8=Floyd Cramer - What Child Is This
TTITLE9=Hank Snow - Silent Night
TTITLE10=Eddy Arnold - I Heard the Bells on Christmas Day
TTITLE11=Chet Atkins - Oh Come, All Ye Faithful
EXTD=
EXTT0=
EXTT1=
EXTT2=
EXTT3=
EXTT4=
EXTT5=
EXTT6=
EXTT7=
EXTT8=
EXTT9=
EXTT10=
EXTT11=
PLAYORDER=
